<svg width="110" height="116" viewBox="0 0 110 116" fill="none" xmlns="http://www.w3.org/2000/svg">
<rect x="3" y="3" width="104" height="110" rx="12" stroke="white" stroke-width="6"/>
<mask id="path-2-outside-1_24_11" maskUnits="userSpaceOnUse" x="17" y="12" width="38" height="92" fill="black">
<rect fill="white" x="17" y="12" width="38" height="92"/>
<path d="M53.84 91.096C53.84 94.68 52.7307 97.5813 50.512 99.8C48.2933 101.933 45.392 103 41.808 103H20.56V25.304H18.64L19.92 13.4H41.808C45.392 13.4 48.2933 14.5093 50.512 16.728C52.7307 18.8613 53.84 21.72 53.84 25.304V91.096ZM41.04 25.304H32.72V91.096H41.04C41.4667 91.096 41.68 90.8827 41.68 90.456V25.944C41.68 25.5173 41.4667 25.304 41.04 25.304Z"/>
</mask>
<path d="M53.84 91.096C53.84 94.68 52.7307 97.5813 50.512 99.8C48.2933 101.933 45.392 103 41.808 103H20.56V25.304H18.64L19.92 13.4H41.808C45.392 13.4 48.2933 14.5093 50.512 16.728C52.7307 18.8613 53.84 21.72 53.84 25.304V91.096ZM41.04 25.304H32.72V91.096H41.04C41.4667 91.096 41.68 90.8827 41.68 90.456V25.944C41.68 25.5173 41.4667 25.304 41.04 25.304Z" fill="white"/>
<path d="M50.512 99.8L51.2051 100.521L51.2122 100.514L51.2191 100.507L50.512 99.8ZM20.56 103H19.56V104H20.56V103ZM20.56 25.304H21.56V24.304H20.56V25.304ZM18.64 25.304L17.6457 25.1971L17.5267 26.304H18.64V25.304ZM19.92 13.4V12.4H19.0218L18.9257 13.2931L19.92 13.4ZM50.512 16.728L49.8049 17.4351L49.8118 17.442L49.8189 17.4488L50.512 16.728ZM32.72 25.304V24.304H31.72V25.304H32.72ZM32.72 91.096H31.72V92.096H32.72V91.096ZM52.84 91.096C52.84 94.4558 51.8089 97.0889 49.8049 99.0929L51.2191 100.507C53.6524 98.0738 54.84 94.9042 54.84 91.096H52.84ZM49.8189 99.0792C47.817 101.004 45.1792 102 41.808 102V104C45.6048 104 48.7697 102.863 51.2051 100.521L49.8189 99.0792ZM41.808 102H20.56V104H41.808V102ZM21.56 103V25.304H19.56V103H21.56ZM20.56 24.304H18.64V26.304H20.56V24.304ZM19.6343 25.4109L20.9143 13.5069L18.9257 13.2931L17.6457 25.1971L19.6343 25.4109ZM19.92 14.4H41.808V12.4H19.92V14.4ZM41.808 14.4C45.1678 14.4 47.8009 15.4311 49.8049 17.4351L51.2191 16.0209C48.7858 13.5876 45.6162 12.4 41.808 12.4V14.4ZM49.8189 17.4488C51.809 19.3624 52.84 21.9434 52.84 25.304H54.84C54.84 21.4966 53.6523 18.3603 51.2051 16.0072L49.8189 17.4488ZM52.84 25.304V91.096H54.84V25.304H52.84ZM41.04 24.304H32.72V26.304H41.04V24.304ZM31.72 25.304V91.096H33.72V25.304H31.72ZM32.72 92.096H41.04V90.096H32.72V92.096ZM41.04 92.096C41.4075 92.096 41.8668 92.0035 42.2271 91.6431C42.5875 91.2828 42.68 90.8235 42.68 90.456H40.68C40.68 90.5152 40.6659 90.3759 40.8129 90.2289C40.9599 90.0819 41.0992 90.096 41.04 90.096V92.096ZM42.68 90.456V25.944H40.68V90.456H42.68ZM42.68 25.944C42.68 25.5765 42.5875 25.1172 42.2271 24.7569C41.8668 24.3965 41.4075 24.304 41.04 24.304V26.304C41.0992 26.304 40.9599 26.3181 40.8129 26.1711C40.6659 26.0241 40.68 25.8848 40.68 25.944H42.68Z" fill="white" mask="url(#path-2-outside-1_24_11)"/>
<mask id="path-4-outside-2_24_11" maskUnits="userSpaceOnUse" x="57" y="11" width="34" height="94" fill="black">
<rect fill="white" x="57" y="11" width="34" height="94"/>
<path d="M70.72 77.4V90.968C70.72 91.3947 70.9333 91.608 71.36 91.608H76.48C76.9067 91.608 77.12 91.3947 77.12 90.968V67.928L67.008 63.448C66.24 63.192 65.1733 62.7653 63.808 62.168C62.4427 61.4853 61.2053 60.504 60.096 59.224C59.072 57.944 58.56 56.1947 58.56 53.976V24.792C58.56 21.208 59.6693 18.3493 61.888 16.216C64.1067 13.9973 67.008 12.888 70.592 12.888H77.248C80.832 12.888 83.7333 13.9973 85.952 16.216C88.1707 18.3493 89.28 21.208 89.28 24.792V43.736L77.12 42.712V25.432C77.12 25.0053 76.9067 24.792 76.48 24.792H71.36C70.9333 24.792 70.72 25.0053 70.72 25.432V52.184L80.832 56.664C81.6 57.0053 82.6667 57.4747 84.032 58.072C85.3973 58.6693 86.592 59.608 87.616 60.888C88.7253 62.168 89.28 63.9173 89.28 66.136V91.608C89.28 95.192 88.1707 98.0933 85.952 100.312C83.7333 102.445 80.832 103.512 77.248 103.512H70.592C67.008 103.512 64.1067 102.445 61.888 100.312C59.6693 98.0933 58.56 95.192 58.56 91.608V77.4H70.72Z"/>
</mask>
<path d="M70.72 77.4V90.968C70.72 91.3947 70.9333 91.608 71.36 91.608H76.48C76.9067 91.608 77.12 91.3947 77.12 90.968V67.928L67.008 63.448C66.24 63.192 65.1733 62.7653 63.808 62.168C62.4427 61.4853 61.2053 60.504 60.096 59.224C59.072 57.944 58.56 56.1947 58.56 53.976V24.792C58.56 21.208 59.6693 18.3493 61.888 16.216C64.1067 13.9973 67.008 12.888 70.592 12.888H77.248C80.832 12.888 83.7333 13.9973 85.952 16.216C88.1707 18.3493 89.28 21.208 89.28 24.792V43.736L77.12 42.712V25.432C77.12 25.0053 76.9067 24.792 76.48 24.792H71.36C70.9333 24.792 70.72 25.0053 70.72 25.432V52.184L80.832 56.664C81.6 57.0053 82.6667 57.4747 84.032 58.072C85.3973 58.6693 86.592 59.608 87.616 60.888C88.7253 62.168 89.28 63.9173 89.28 66.136V91.608C89.28 95.192 88.1707 98.0933 85.952 100.312C83.7333 102.445 80.832 103.512 77.248 103.512H70.592C67.008 103.512 64.1067 102.445 61.888 100.312C59.6693 98.0933 58.56 95.192 58.56 91.608V77.4H70.72Z" fill="white"/>
<path d="M70.72 77.4H71.72V76.4H70.72V77.4ZM77.12 67.928H78.12V67.2773L77.5251 67.0137L77.12 67.928ZM67.008 63.448L67.4131 62.5337L67.3695 62.5144L67.3242 62.4993L67.008 63.448ZM63.808 62.168L63.3608 63.0624L63.3837 63.0739L63.4072 63.0842L63.808 62.168ZM60.096 59.224L59.3151 59.8487L59.3274 59.8641L59.3403 59.8789L60.096 59.224ZM61.888 16.216L62.5811 16.9368L62.5882 16.93L62.5951 16.9231L61.888 16.216ZM85.952 16.216L85.2449 16.9231L85.2518 16.93L85.2589 16.9368L85.952 16.216ZM89.28 43.736L89.1961 44.7325L90.28 44.8237V43.736H89.28ZM77.12 42.712H76.12V43.6313L77.0361 43.7085L77.12 42.712ZM70.72 52.184H69.72V52.8347L70.3149 53.0983L70.72 52.184ZM80.832 56.664L81.2381 55.7502L81.2371 55.7497L80.832 56.664ZM87.616 60.888L86.8351 61.5127L86.8474 61.5281L86.8603 61.5429L87.616 60.888ZM85.952 100.312L86.6451 101.033L86.6522 101.026L86.6591 101.019L85.952 100.312ZM61.888 100.312L61.1809 101.019L61.1878 101.026L61.1949 101.033L61.888 100.312ZM58.56 77.4V76.4H57.56V77.4H58.56ZM69.72 77.4V90.968H71.72V77.4H69.72ZM69.72 90.968C69.72 91.3355 69.8125 91.7948 70.1729 92.1551C70.5332 92.5155 70.9925 92.608 71.36 92.608V90.608C71.3008 90.608 71.4401 90.5939 71.5871 90.7409C71.7341 90.8879 71.72 91.0272 71.72 90.968H69.72ZM71.36 92.608H76.48V90.608H71.36V92.608ZM76.48 92.608C76.8475 92.608 77.3068 92.5155 77.6671 92.1551C78.0275 91.7948 78.12 91.3355 78.12 90.968H76.12C76.12 91.0272 76.1059 90.8879 76.2529 90.7409C76.3999 90.5939 76.5392 90.608 76.48 90.608V92.608ZM78.12 90.968V67.928H76.12V90.968H78.12ZM77.5251 67.0137L67.4131 62.5337L66.6029 64.3623L76.7149 68.8423L77.5251 67.0137ZM67.3242 62.4993C66.5994 62.2577 65.5653 61.8453 64.2088 61.2518L63.4072 63.0842C64.7814 63.6854 65.8806 64.1263 66.6918 64.3967L67.3242 62.4993ZM64.2552 61.2736C63.0197 60.6558 61.8844 59.7606 60.8517 58.5691L59.3403 59.8789C60.5263 61.2474 61.8656 62.3148 63.3608 63.0624L64.2552 61.2736ZM60.8769 58.5993C60.0377 57.5503 59.56 56.0475 59.56 53.976H57.56C57.56 56.3418 58.1063 58.3377 59.3151 59.8487L60.8769 58.5993ZM59.56 53.976V24.792H57.56V53.976H59.56ZM59.56 24.792C59.56 21.4314 60.591 18.8504 62.5811 16.9368L61.1949 15.4952C58.7477 17.8483 57.56 20.9846 57.56 24.792H59.56ZM62.5951 16.9231C64.5991 14.9191 67.2322 13.888 70.592 13.888V11.888C66.7838 11.888 63.6142 13.0756 61.1809 15.5089L62.5951 16.9231ZM70.592 13.888H77.248V11.888H70.592V13.888ZM77.248 13.888C80.6078 13.888 83.2409 14.9191 85.2449 16.9231L86.6591 15.5089C84.2258 13.0756 81.0562 11.888 77.248 11.888V13.888ZM85.2589 16.9368C87.249 18.8504 88.28 21.4314 88.28 24.792H90.28C90.28 20.9846 89.0923 17.8483 86.6451 15.4952L85.2589 16.9368ZM88.28 24.792V43.736H90.28V24.792H88.28ZM89.3639 42.7395L77.2039 41.7155L77.0361 43.7085L89.1961 44.7325L89.3639 42.7395ZM78.12 42.712V25.432H76.12V42.712H78.12ZM78.12 25.432C78.12 25.0645 78.0275 24.6052 77.6671 24.2449C77.3068 23.8845 76.8475 23.792 76.48 23.792V25.792C76.5392 25.792 76.3999 25.8061 76.2529 25.6591C76.1059 25.5121 76.12 25.3728 76.12 25.432H78.12ZM76.48 23.792H71.36V25.792H76.48V23.792ZM71.36 23.792C70.9925 23.792 70.5332 23.8845 70.1729 24.2449C69.8125 24.6052 69.72 25.0645 69.72 25.432H71.72C71.72 25.3728 71.7341 25.5121 71.5871 25.6591C71.4401 25.8061 71.3008 25.792 71.36 25.792V23.792ZM69.72 25.432V52.184H71.72V25.432H69.72ZM70.3149 53.0983L80.4269 57.5783L81.2371 55.7497L71.1251 51.2697L70.3149 53.0983ZM80.4259 57.5778C81.1965 57.9203 82.2652 58.3905 83.6312 58.9882L84.4328 57.1558C83.0681 56.5588 82.0035 56.0904 81.2381 55.7502L80.4259 57.5778ZM83.6312 58.9882C84.8337 59.5142 85.902 60.3463 86.8351 61.5127L88.3969 60.2633C87.282 58.8697 85.961 57.8244 84.4328 57.1558L83.6312 58.9882ZM86.8603 61.5429C87.7686 62.591 88.28 64.082 88.28 66.136H90.28C90.28 63.7526 89.6821 61.745 88.3717 60.2331L86.8603 61.5429ZM88.28 66.136V91.608H90.28V66.136H88.28ZM88.28 91.608C88.28 94.9678 87.2489 97.6009 85.2449 99.6049L86.6591 101.019C89.0924 98.5858 90.28 95.4162 90.28 91.608H88.28ZM85.2589 99.5912C83.257 101.516 80.6192 102.512 77.248 102.512V104.512C81.0448 104.512 84.2097 103.375 86.6451 101.033L85.2589 99.5912ZM77.248 102.512H70.592V104.512H77.248V102.512ZM70.592 102.512C67.2208 102.512 64.583 101.516 62.5811 99.5912L61.1949 101.033C63.6303 103.375 66.7952 104.512 70.592 104.512V102.512ZM62.5951 99.6049C60.5911 97.6009 59.56 94.9678 59.56 91.608H57.56C57.56 95.4162 58.7476 98.5858 61.1809 101.019L62.5951 99.6049ZM59.56 91.608V77.4H57.56V91.608H59.56ZM58.56 78.4H70.72V76.4H58.56V78.4Z" fill="white" mask="url(#path-4-outside-2_24_11)"/>
</svg>
